<svg xmlns="http://www.w3.org/2000/svg" viewBox="0 0 310 200"><defs><clipPath id="a"><path fill="none" d="M0 0h259.809v147H0z"/></clipPath></defs><g data-name="Group 1116"><path data-name="Rectangle 531" fill="#fff" d="M0 0h305v193.44H0z"/><g data-name="Repeat Grid 1" transform="translate(21.999 22.999)" clip-path="url(#a)"><path data-name="Rectangle 565" fill="#f6f6f6" d="M83 0h205v19H83z"/><path data-name="Rectangle 566" fill="#8a8a8a" d="M0 5h69v10H0z"/><path data-name="Rectangle 565" fill="#f6f6f6" d="M83 34h205v19H83z"/><path data-name="Rectangle 566" fill="#8a8a8a" d="M0 39h69v10H0z"/><path data-name="Rectangle 565" fill="#f6f6f6" d="M83 68h205v19H83z"/><path data-name="Rectangle 566" fill="#8a8a8a" d="M0 73h69v10H0z"/><g><path data-name="Rectangle 565" fill="#f6f6f6" d="M83 102h205v19H83z"/><path data-name="Rectangle 566" fill="#8a8a8a" d="M0 107h69v10H0z"/></g><g><path data-name="Rectangle 565" fill="#f6f6f6" d="M83 136h205v19H83z"/><path data-name="Rectangle 566" fill="#8a8a8a" d="M0 141h69v10H0z"/></g></g></g></svg>
