<svg viewBox="0 0 100 125" xml:space="preserve" xmlns="http://www.w3.org/2000/svg"><g fill="currentColor"><path d="M80.992 90.35a1.718 1.718 0 0 1-1.718-1.72v-4.565c-7.288 6.017-16.359 9.293-25.933 9.293-10.905 0-21.159-4.247-28.868-11.96a1.72 1.72 0 0 1 2.431-2.43c7.061 7.062 16.45 10.952 26.437 10.952 8.497 0 16.559-2.827 23.125-8.018h-3.921c-.952 0-1.72-.77-1.72-1.72s.768-1.72 1.72-1.72h8.446a1.725 1.725 0 0 1 1.716 1.703c0 .006.004.012.004.018v8.448a1.717 1.717 0 0 1-1.719 1.72zM5.462 55.4a1.718 1.718 0 0 1 2.349-.627l3.954 2.283c-1.566-9.321.131-18.814 4.917-27.107 5.453-9.443 14.258-16.198 24.792-19.02a1.72 1.72 0 0 1 .889 3.32c-9.646 2.584-17.709 8.77-22.702 17.42-4.249 7.357-5.832 15.754-4.62 24.036l1.961-3.396a1.72 1.72 0 0 1 2.979 1.72l-4.225 7.315a1.727 1.727 0 0 1-1.713.842 1.707 1.707 0 0 1-.618-.208c-.005-.003-.012-.003-.018-.006l-7.316-4.224a1.719 1.719 0 0 1-.629-2.348zM72.852 7.503a1.721 1.721 0 0 1-.631 2.349l-3.955 2.282c8.855 3.303 16.228 9.52 21.017 17.813 5.451 9.444 6.899 20.446 4.076 30.98a1.72 1.72 0 0 1-3.32-.89c2.584-9.646 1.26-19.722-3.734-28.371-4.248-7.357-10.729-12.928-18.506-16.018l1.96 3.396a1.717 1.717 0 0 1-.629 2.348 1.716 1.716 0 0 1-2.349-.63l-4.225-7.314a1.716 1.716 0 0 1 .616-2.336c.006-.003.009-.01.015-.012l7.315-4.225a1.72 1.72 0 0 1 2.35.628z"/></g></svg>
