<svg aria-hidden="true" viewBox="0 0 1000 900" xmlns="http://www.w3.org/2000/svg"><path fill="currentColor" d="M871.294 583.114c-19.664 26.419-47.08 57.3-77.186 86.955-30.106 29.656-61.456 56.657-88.276 76.03-45.663 32.985-67.813 36.8-80.503 36.8H299.508c-39.058 0-70.83-31.3-70.83-69.77V71.238c0-38.471 31.772-69.77 70.83-69.77H837.82c39.056 0 70.831 31.299 70.831 69.77v432.577c0 12.5-3.87 34.319-37.358 79.298zm-117.253 47.488c27.181-26.775 48.52-50.931 64.261-70.97H681.994v134.262c20.348-15.506 44.87-36.523 72.047-63.292zm97.947-559.363c0-7.563-6.489-13.954-14.167-13.954H299.508c-7.678 0-14.166 6.391-14.166 13.954v641.89c0 7.562 6.488 13.953 14.166 13.953 0 0 325.782.002 325.821 0V531.725c0-15.413 12.682-27.909 28.332-27.909h198.327ZM592.503 857.731c-45.663 32.986-67.814 36.8-80.503 36.8H186.179c-39.056 0-70.831-31.299-70.831-69.77V182.87c0-33.691 24.373-61.884 56.664-68.365V824.76c0 7.563 6.489 13.954 14.167 13.954H617.25c-8.54 6.907-16.847 13.309-24.748 19.016z"/></svg>
