<svg aria-hidden="true" viewBox="0 0 1000 1000" xmlns="http://www.w3.org/2000/svg"><path fill="currentColor" d="M700 224.571 846.286 78.285q5.714-5.143 13.143-5.143 6.857 0 13.143 5.143 5.143 5.714 5.143 13.143t-5.143 13.143L726.286 250.857Q720.572 256 713.143 256T700 250.857q-5.143-5.714-5.143-13.143T700 224.571zm-96.572-23.428V18.286q0-8 5.143-13.143Q613.714 0 621.714 0t13.143 5.143Q640 10.286 640 18.286v182.857q0 8-5.143 13.143-5.143 5.143-13.143 5.143t-13.143-5.143q-5.143-5.143-5.143-13.143zm128 128q0-8 5.143-13.143 5.143-5.143 13.143-5.143h182.857q8 0 13.143 5.143 5.143 5.143 5.143 13.143t-5.143 13.143q-5.143 5.143-13.143 5.143H749.714q-8 0-13.143-5.143-5.143-5.143-5.143-13.143zM9.143 256q0-68.571 48.571-116l84-83.429q47.429-47.429 116-47.429 69.143 0 116.571 48.571l190.857 191.429q12 12 24 32l-136.571 10.286-156-156.571q-15.429-15.429-38.857-15.714-23.428-.285-38.857 15.143l-84 83.429q-16 16-16 38.286 0 22.857 16 38.857l156.571 157.143-10.286 136.571q-20-12-32-24l-192-192q-48-49.143-48-116.571zm352.571 413.714 136.571-10.286 156 156.571q16 16 38.857 16 22.286 0 38.857-15.429l84-83.429q16-16 16-38.286 0-22.857-16-38.857L659.428 499.427l10.286-137.143q20 12 32 24l192 192q48 49.143 48 116.571 0 68.571-48.571 116l-84 83.429q-47.429 47.429-116 47.429-69.143 0-116.571-48.571L385.715 701.713q-12-12-24-32zM0 621.714q0-8 5.143-13.143 5.143-5.143 13.143-5.143h182.857q8 0 13.143 5.143 5.143 5.143 5.143 13.143t-5.143 13.143Q209.143 640 201.143 640H18.286q-8 0-13.143-5.143Q0 629.714 0 621.714Zm310.857 310.857V749.714q0-8 5.143-13.143 5.143-5.143 13.143-5.143t13.143 5.143q5.143 5.143 5.143 13.143v182.857q0 8-5.143 13.143-5.143 5.143-13.143 5.143T316 945.714q-5.143-5.143-5.143-13.143zM78.286 846.286 224.572 700q6.286-5.143 13.143-5.143 6.857 0 13.143 5.143 5.143 5.714 5.143 13.143t-5.143 13.143L104.572 872.572q-5.714 5.143-13.143 5.143t-13.143-5.143q-5.143-5.714-5.143-13.143t5.143-13.143z"/></svg>
