<svg xmlns="http://www.w3.org/2000/svg" width="217" height="62.927"><defs><filter id="a" x="0" y="39.927" width="217" height="23" filterUnits="userSpaceOnUse"><feOffset dy="3"/><feGaussianBlur stdDeviation="3" result="blur"/><feFlood flood-opacity=".161"/><feComposite operator="in" in2="blur"/><feComposite in="SourceGraphic"/></filter><filter id="b" x="0" y="0" width="217" height="60" filterUnits="userSpaceOnUse"><feOffset dy="3"/><feGaussianBlur stdDeviation="3" result="blur-2"/><feFlood flood-opacity=".161"/><feComposite operator="in" in2="blur-2"/><feComposite in="SourceGraphic"/></filter></defs><g data-name="Group 2108"><g transform="translate(0 -.003)" filter="url(#a)"><path data-name="Rectangle 835" d="M9 45.93h199a5 5 0 0 1-5 5H14a5 5 0 0 1-5-5Z" fill="#036"/></g><g data-name="Group 1774"><g transform="translate(0 .003)" filter="url(#b)"><g data-name="Rectangle 15" fill="#fff" stroke="#f2f2f2"><path d="M19 6h179a10 10 0 0 1 10 10v32H9V16A10 10 0 0 1 19 6Z" stroke="none"/><path d="M19 6.5h179a9.5 9.5 0 0 1 9.5 9.5v31a.5.5 0 0 1-.5.5H10a.5.5 0 0 1-.5-.5V16A9.5 9.5 0 0 1 19 6.5Z" fill="none"/></g></g><text data-name="Page title ➜" transform="translate(23 19.926)" fill="#036" font-size="10" font-family="BCSans-Bold, BC Sans" font-weight="700"><tspan x="0" y="11">Page title </tspan><tspan y="11" font-family="SegoeUISymbol, Segoe UI Symbol" font-weight="400">➜</tspan></text></g></g></svg>
