<svg xmlns="http://www.w3.org/2000/svg" version="1.1" viewBox="0 0 100 100"><path d="M81.483,15.333H68.616v-3.739c0-2.085-1.697-3.783-3.784-3.783c-1.878,0-3.428,1.377-3.722,3.172  c-0.04,0.197-0.061,0.402-0.061,0.611v3.739H38.349v-3.739c0-2.085-1.698-3.783-3.785-3.783c-1.877,0-3.427,1.377-3.72,3.172  c-0.041,0.197-0.062,0.402-0.062,0.611v3.739h-9.835c-5.942,0-11.353,4.98-11.353,10.639v54.484c0,5.626,5.198,10.55,11.353,10.55  h60.536c5.697,0,9.834-4.537,9.834-10.55V25.972C91.317,19.808,87.089,15.333,81.483,15.333z M85.264,80.456  c0,2.091-0.994,4.496-3.78,4.496H20.947c-2.502,0-5.299-2.021-5.299-4.496V47.114h69.616V80.456z M85.264,41.061H15.648V25.972  c0-2.356,2.673-4.585,5.299-4.585h9.835v5.343c0,0.208,0.019,0.414,0.061,0.611c0.295,1.794,1.846,3.172,3.723,3.172  c2.086,0,3.784-1.697,3.784-3.783v-5.343H61.05v5.343c0,0.208,0.02,0.414,0.06,0.611c0.296,1.794,1.847,3.172,3.724,3.172  c2.087,0,3.783-1.697,3.783-3.783v-5.343h12.867c2.595,0,3.78,2.294,3.78,4.585V41.061z"/></svg>
