<svg xmlns="http://www.w3.org/2000/svg" version="1.1" viewBox="0 0 32 32" xml:space="preserve" x="0px" y="0px"><rect width="32" height="32" fill="none"/><path d="m15.984 13.986a1.0001 1.0001 0 0 0 -0.98438 1.0137v7a1.0001 1.0001 0 1 0 2 0v-7a1.0001 1.0001 0 0 0 -1.0156 -1.0137z" /><circle cx="16" cy="10" r="1"/><path d="m16 2c-7.7201 0-14 6.2799-14 14 0 7.7201 6.2799 14 14 14 7.7201 0 14-6.2799 14-14 0-7.7201-6.2799-14-14-14zm0 2c6.6393 0 12 5.3607 12 12 0 6.6393-5.3607 12-12 12-6.6393 0-12-5.3607-12-12 0-6.6393 5.3607-12 12-12z" /></svg>
